<?xml version="1.0" encoding="utf-8"?>
<!-- Generator: Adobe Illustrator 21.1.0, SVG Export Plug-In . SVG Version: 6.00 Build 0)  -->
<svg version="1.1" id="Layer_1" xmlns="http://www.w3.org/2000/svg" xmlns:xlink="http://www.w3.org/1999/xlink" x="0px" y="0px"
	 viewBox="0 0 67.6 74.6" style="enable-background:new 0 0 67.6 74.6;" xml:space="preserve">
<style type="text/css">
	.st0{fill:#FFFFFF;}
</style>
<g>
	<path class="st0" d="M29.7,35c-0.6-0.6-1.3-0.8-2.1-0.7c-1.7,0.1-2.9,1.3-2.9,3c0,2.3,2.4,3.7,4.3,2.6c1.1-0.7,2-1.7,3-2.6
		C31.2,36.5,30.4,35.8,29.7,35z"/>
	<path class="st0" d="M41.2,34.5c-1.1-0.5-2.1-0.3-3,0.5c-0.9,0.7-1.6,1.5-2.5,2.3c0.8,0.8,1.4,1.5,2.2,2.1c0.6,0.5,1.3,0.9,2.1,0.9
		c1.8,0.1,3.3-1.5,3.1-3.4C42.8,35.7,42.2,34.9,41.2,34.5z"/>
	<path class="st0" d="M62,14.5l-22.4-13c-3.5-2-7.9-2-11.4,0l-22.4,13c-3.5,2-5.7,5.8-5.7,9.9v25.9c0,4.1,2.2,7.8,5.7,9.9l22.4,13
		c3.5,2,7.9,2,11.4,0l22.4-13c3.5-2,5.7-5.8,5.7-9.9V24.3C67.6,20.3,65.5,16.5,62,14.5z M38,59.5c-1,0-1.8-0.8-1.8-1.8
		c0-0.9,0.8-1.8,1.7-1.7c1.1,0,1.7,0.6,1.7,1.8C39.6,58.7,38.9,59.5,38,59.5z M43,57.8c-0.9,0-1.8-0.8-1.7-1.7
		c0-0.9,0.7-1.8,1.7-1.7c1.1-0.1,1.7,0.8,1.8,1.7C44.9,57.1,44,57.8,43,57.8z M44.3,40.9c-1,1.2-2.3,1.8-3.8,2
		c-1.8,0.2-3.3-0.4-4.6-1.7c-0.7-0.7-1.4-1.4-2.1-2.1c-0.6,0.6-1.2,1.2-1.8,1.8c-0.8,0.8-1.7,1.4-2.8,1.8c-1.2,0.4-2.3,0.3-3.4-0.1
		c-1.3-0.5-2.4-1.3-3-2.5c-0.4-0.7-0.7-1.5-0.7-2.3c-0.1-1.3,0.2-2.5,0.9-3.6c0.9-1.4,2.2-2.2,3.9-2.4c1.5-0.3,2.9,0.2,4.1,1
		c0.4,0.2,0.7,0.6,1,0.9c0.6,0.6,1.2,1.2,1.9,1.9c0.7-0.7,1.4-1.4,2.1-2.2c0.9-0.9,2-1.4,3.3-1.6c1.8-0.2,3.4,0.4,4.7,1.6
		C46.1,35.4,46.2,38.7,44.3,40.9z M55.9,39.6c-0.2,1.4-0.5,2.8-0.9,4.2c-0.6,2.1-1.5,4-2.7,5.8c-0.7,0.9-1.4,1.8-2.1,2.7
		c-0.2,0.3-0.2,0.4,0,0.6c0.5,0.5,1,1,1.6,1.6c-1,0-1.8,0-2.6,0c-0.9,0-1.7,0-2.6,0c-0.3,0-0.5-0.1-0.5-0.4c0-1.7,0-3.3,0-5
		c0,0,0-0.1,0.1-0.2c0.5,0.6,1.1,1.1,1.6,1.6c0.2,0.2,0.4,0.3,0.6,0c0.8-1.1,1.7-2.2,2.4-3.4c1.1-1.6,1.7-3.4,2.2-5.3
		c0.5-2,0.6-4.1,0.5-6.2c-0.2-2.9-1-5.6-2.5-8.1c-0.7-1.2-1.6-2.3-2.5-3.4c-1.7-2-3.8-3.5-6.2-4.6c-1.7-0.8-3.5-1.4-5.4-1.6
		c-1.5-0.2-3-0.3-4.5-0.2c-2.2,0.2-4.3,0.7-6.3,1.6c-1.8,0.8-3.4,1.8-4.8,3.1c-0.9,0.8-1.8,1.7-2.5,2.7c-0.9,1.1-1.6,2.4-2.3,3.6
		c-0.9,1.8-1.6,3.7-1.8,5.8c-0.1,1.5-0.3,3-0.2,4.4c0.2,2.2,0.7,4.3,1.6,6.3c1,2.1,2.2,4,3.8,5.6c1.5,1.5,3.1,2.8,5,3.8
		c1.7,0.9,3.5,1.5,5.4,1.9c1.2,0.2,2.5,0.3,3.7,0.4c0,0.8,0,1.6,0,2.6c-0.8,0-1.6,0-2.4-0.1c-1.4-0.2-2.8-0.5-4.2-0.9
		c-2.5-0.7-4.7-1.9-6.8-3.5c-2.4-1.8-4.4-4.1-5.9-6.7c-1.2-2.1-2-4.3-2.5-6.6c-0.4-1.9-0.5-3.8-0.4-5.7c0.2-3.3,1.1-6.5,2.7-9.4
		c0.8-1.5,1.8-2.9,3-4.2c2-2.2,4.4-4,7.1-5.3c1.7-0.8,3.5-1.4,5.4-1.7c1.5-0.3,3.1-0.4,4.7-0.4c2,0.1,3.9,0.4,5.9,1
		c2.1,0.6,4,1.5,5.8,2.8c1.1,0.8,2.1,1.6,3.1,2.5c1.5,1.4,2.8,3,3.8,4.7c1.2,1.9,2,4,2.5,6.2c0.2,1.1,0.4,2.3,0.5,3.5
		C56,37,56.1,38.3,55.9,39.6z"/>
</g>
</svg>
